<svg xmlns="http://www.w3.org/2000/svg" width="194.000" height="247.000" viewBox="0 0 194.000 247.000">
  <g transform="translate(-53.000 -27.000)">
<path d="M 138.050 266.400 L 137.700 248.039 L 110.500 247.923 L 109.077 246.500 L 109.050 186.500 L 115.500 162.977 L 130.600 167.950 L 145.500 169.923 L 146.886 168.700 L 147.023 146.400 L 123.500 140.923 L 105.218 128.700 L 91.077 107.500 L 87.500 84.950 L 63.050 85.500 L 65.077 106.500 L 69.077 118.500 L 76.050 130.500 L 66.077 152.400 L 60.050 178.500 L 59.050 265.400 L 63.500 267.923 L 136.500 267.950 L 138.050 266.400 Z" fill="#ffffff" />
  <path d="M 161.950 266.400 L 162.300 248.039 L 189.500 247.923 L 190.923 246.500 L 190.950 186.500 L 184.500 162.977 L 169.400 167.950 L 154.500 169.923 L 153.114 168.700 L 152.977 146.400 L 176.500 140.923 L 194.782 128.700 L 208.923 107.500 L 212.500 84.950 L 236.950 85.500 L 234.923 106.500 L 230.923 118.500 L 223.950 130.500 L 233.923 152.400 L 239.950 178.500 L 240.950 265.400 L 236.500 267.923 L 163.500 267.950 L 161.950 266.400 Z" fill="#ffffff" />
  <path d="M 198.000 81.500 A 48.500 48.500 0 1 0 101.000 81.500 A 48.500 48.500 0 1 0 198.000 81.500 Z M 186.000 81.500 A 36.500 36.500 0 1 0 113.000 81.500 A 36.500 36.500 0 1 0 186.000 81.500 Z M 179.000 81.500 A 29.500 29.500 0 1 0 120.000 81.500 A 29.500 29.500 0 1 0 179.000 81.500 Z M 146.697 67.449 A 5.310 5.310 0 1 0 136.077 67.449 A 5.310 5.310 0 1 0 146.697 67.449 Z M 189.378 62.905 A 44.000 44.000 0 0 1 190.846 96.549 L 188.027 95.523 A 41.000 41.000 0 0 0 186.659 64.173 Z" fill="#ffffff" fill-rule="evenodd" />
  </g>
</svg>